PathFileType	4	(X/Y/Z)	C:/Users/beibeiliu/ov580/test_trc\sequence.33_training_dense_left.trc
DataRate	CameraRate	NumFrames	NumMarkers	Units	OrigDataRate	OrigDataStartFrame	OrigNumFrames
120	120	7	19	mm	120	47	373
Frame#	Time	ThumbCMC			ThumbMCP			ThumbIP			ThumbTip			IndexMCP			IndexPIP			IndexTip			MiddleMCP			MiddlePIP			MiddleTip			RingMCP			RingPIP			RingTip			PinkyMCP			PinkyPIP			PinkyTip			BackHand1			BackHand2			BackHand3	
		X0	Y0	Z0	X1	Y1	Z1	X2	Y2	Z2	X3	Y3	Z3	X4	Y4	Z4	X5	Y5	Z5	X6	Y6	Z6	X7	Y7	Z7	X8	Y8	Z8	X9	Y9	Z9	X10	Y10	Z10	X11	Y11	Z11	X12	Y12	Z12	X13	Y13	Z13	X14	Y14	Z14	X15	Y15	Z15	X16	Y16	Z16	X17	Y17	Z17	X18	Y18	Z18	
46	0.383333	-186.802	54.4354	8.18283	-166.151	42.3095	-15.3855	-166.118	29.0346	-34.7447	-172.513	9.8249	-49.6919	-213	59.3905	-47.2103	-209.841	56.8092	-71.006	-199.205	46.4779	-93.2359	-227.583	42.0025	-51.6983	-226.97	36.2005	-79.9193	-220.972	26.9574	-100.661	-228.539	15.9222	-44.1477	-210.775	11.4397	-65.7955	-185.719	0.433891	-63.1468	-234.322	0.136107	-32.1012	-233.264	-3.64014	-45.7949	-230.028	-10.6342	-64.8869	-232.722	28.6557	1.86792	-229.863	29.411	29.7379	-219.858	53.3235	11.8064	
47	0.391667	-186.325	53.3361	9.31587	-171.002	38.9227	-14.5385	-164.099	27.9773	-38.3785	-166.072	9.98634	-51.7924	-214.493	57.501	-50.8191	-209.459	56.7857	-70.7435	-199.659	50.2654	-94.7979	-228.443	37.4347	-48.8821	-229.612	31.0391	-76.888	-221.889	25.3841	-101.833	-226.628	13.7896	-48.0874	-209.51	8.57677	-64.8637	-182.744	-0.68043	-62.0646	-232.187	-0.139125	-29.2746	-231.737	-9.23911	-47.9036	-228.889	-14.8462	-67.872	-231.565	24.419	4.49349	-231.472	30.5058	26.2054	-222.278	52.3172	11.3165	
48	0.4	-188.144	51.4752	12.0133	-171.016	37.7347	-13.3716	-163.781	26.9313	-37.4708	-170.757	7.11804	-49.9743	-215.585	55.785	-49.0478	-212.382	53.0393	-73.0264	-203.158	47.7389	-94.9151	-229.698	33.4624	-49.2604	-228.831	32.1046	-78.3973	-222.004	24.2099	-103.669	-224.894	14.8183	-44.3748	-207.854	1.41985	-64.8057	-179.519	1.32455	-58.968	-233.482	-5.88302	-31.4588	-231.73	-11.5697	-50.6282	-230.665	-16.3664	-65.0533	-234.22	21.8278	4.39396	-231.894	26.2026	25.0262	-224.642	46.5729	12.5016	
49	0.408333	-186.778	50.78	7.61004	-171.743	36.3705	-13.5742	-166.539	24.0938	-34.9917	-168.975	4.83634	-51.2216	-216.081	52.7452	-51.3758	-210.859	51.5576	-75.3024	-202.688	47.2487	-94.9314	-230.447	32.4261	-51.0779	-230.526	26.9949	-76.4363	-226.604	16.2476	-103.4	-226.849	9.80821	-46.0975	-206.355	1.2703	-64.6391	-181.763	-5.48808	-59.6664	-231.709	-2.72969	-26.6533	-231.444	-10.6377	-47.3577	-233.061	-21.833	-66.0295	-235.552	21.6736	1.25867	-230.191	26.5055	26.4798	-223.87	46.4829	10.4883	
50	0.416667	-187.813	48.5943	12.3385	-170.846	35.166	-15.1227	-166.58	21.9165	-33.6157	-165.583	3.50402	-51.2681	-214.81	51.4807	-46.9189	-214.725	46.4161	-74.9861	-205.251	45.3845	-94.2918	-230.543	28.6908	-50.3559	-232.303	23.7439	-76.6236	-229.702	14.6193	-99.3604	-226.977	8.93375	-44.0498	-207.006	-3.92268	-64.1343	-180.033	-7.21144	-57.8531	-232.897	-8.68673	-30.1879	-233.46	-17.0197	-44.9561	-233.275	-20.4797	-63.5327	-235.107	19.4166	3.57412	-234.277	22.4648	26.2916	-225.537	44.2521	10.0058	
51	0.425	-188.098	47.2519	12.4012	-167.954	35.2359	-13.7885	-167.332	19.8756	-32.8532	-168.327	-0.378233	-51.4337	-217.336	47.7759	-49.3399	-213.992	45.5855	-74.0436	-206.148	39.9879	-97.2269	-230.765	27.422	-49.9309	-232.424	25.513	-73.6892	-230.822	11.9969	-103.304	-226.297	8.66071	-45.3226	-207.239	-1.68738	-64.3324	-184.254	-9.94953	-59.0023	-233.764	-11.7533	-26.2594	-232.695	-18.283	-48.3249	-230.422	-21.6493	-65.5706	-234.48	18.5808	1.75272	-233.805	18.8329	27.541	-225.717	44.9607	9.18234	
52	0.433333	-192.472	44.4454	9.78231	-172.142	34.1788	-11.8499	-167.684	18.5931	-39.1647	-170.072	-0.857132	-49.9805	-218.89	44.4705	-48.3323	-215.648	42.8858	-73.0612	-206.422	36.9807	-96.4082	-233.59	24.2818	-53.2322	-233.464	23.6877	-74.48	-229.478	15.8546	-101.518	-227.948	2.76148	-42.5325	-208.681	-3.21446	-63.6292	-182.719	-10.5045	-58.3883	-233.431	-12.9972	-27.5414	-232.418	-19.5867	-48.6617	-233.617	-27.6854	-67.5017	-233.906	16.8083	0.429449	-235.533	18.2049	29.9732	-226.338	43.615	7.00621	
